<svg width="860" height="983" viewBox="0 0 860 983" fill="none" xmlns="http://www.w3.org/2000/svg">
<path d="M561.5 93.1064C242.736 153.438 134.863 405.696 280 617.606L282 981.606H0V981.106M0 981.606L2 1.10642H381.5C609.5 -4.89359 677 35.6064 677 35.6064C977.1 172.271 798.908 424.814 792.5 424.606C701.5 529.606 520.5 539.606 520.5 539.606L522.5 549.106C908 536.606 857 981.606 857 981.606H551.5C544 729.606 494 688.606 494 688.606L467 662.606L438 644.106L387.5 620.106L352 598.606C227.69 507.106 323.5 295.106 430 235.606C536.5 176.106 434.5 246.106 434.5 246.106C330.5 339.106 344 464.106 352 469.106L359 476.106C432.5 509.606 530 409.106 539.5 313.106L544 266.606V158.106L543 124.606L546 117.606L553.5 114.106L561.5 110.106" stroke="white"/>
</svg>
