<svg width="150" height="37" viewBox="0 0 150 37" fill="none" xmlns="http://www.w3.org/2000/svg">
<path d="M16.4816 15.3296L13.3399 15.3296L13.3398 13.5168L21.8492 13.5168L21.8492 15.3296L18.7075 15.3296L18.7076 23.6799L16.4816 23.6799L16.4816 15.3296Z" fill="#233138"/>
<path d="M35.7113 23.6799L33.3867 23.6799L32.1046 20.2969C32.0013 20.0305 31.8416 19.8449 31.6256 19.7402C31.419 19.6356 31.156 19.5832 30.8367 19.5832L29.4137 19.5832L29.4138 23.6799L27.2441 23.6799L27.2441 13.5168L31.7101 13.5168C32.8748 13.5168 33.7576 13.7737 34.3587 14.2876C34.9599 14.8014 35.2604 15.5389 35.2604 16.5C35.2604 17.1757 35.082 17.7561 34.7251 18.2415C34.3775 18.7268 33.8751 19.0741 33.2176 19.2835C33.8093 19.4072 34.2367 19.8211 34.4997 20.5253L35.7113 23.6799ZM31.3861 17.8846C32.0154 17.8846 32.4756 17.7799 32.7668 17.5706C33.0579 17.3517 33.2035 17.0139 33.2035 16.5571C33.2035 16.1004 33.0579 15.7673 32.7668 15.558C32.4756 15.3391 32.0154 15.2297 31.3861 15.2297L29.3855 15.2297L29.3856 17.8846L31.3861 17.8846Z" fill="#233138"/>
<path d="M41.4453 13.5167L43.6431 13.5167L43.6432 23.6798L41.4454 23.6798L41.4453 13.5167Z" fill="#233138"/>
<path d="M58.5744 13.5167L58.5744 23.6798L56.9402 23.6798L51.9388 17.1994L51.9388 23.6798L49.8819 23.6798L49.8818 13.5167L51.502 13.5167L56.5034 19.9828L56.5034 13.5167L58.5744 13.5167Z" fill="#233138"/>
<path d="M71.3775 23.6797L67.0101 18.9836L67.0101 23.6797L64.8123 23.6797L64.8123 13.5166L67.01 13.5166L67.0101 17.9844L71.2225 13.5166L73.8429 13.5166L69.1797 18.3698L74.0261 23.6797L71.3775 23.6797Z" fill="#233138"/>
<path d="M101.468 13.5165L97.9034 23.6796L96.1424 23.6796L93.8036 16.9566L91.4509 23.6796L89.6899 23.6796L86.1255 13.5166L88.3655 13.5165L90.676 20.5394L93.0992 13.5165L94.6348 13.5165L97.0017 20.6392L99.3686 13.5165L101.468 13.5165Z" fill="#233138"/>
<path d="M106.962 13.5165L113.879 13.5164L113.879 15.2436L109.103 15.2436L109.103 17.6417L113.583 17.6416L113.583 19.3831L109.103 19.3831L109.103 21.9524L113.879 21.9524L113.879 23.6795L106.962 23.6796L106.962 13.5165Z" fill="#233138"/>
<path d="M119.622 13.5164L121.82 13.5164L121.82 23.6795L119.622 23.6795L119.622 13.5164Z" fill="#233138"/>
<path d="M136.751 13.5164L136.751 23.6795L135.117 23.6795L130.116 17.1991L130.116 23.6795L128.059 23.6795L128.059 13.5164L129.679 13.5164L134.68 19.9825L134.68 13.5164L136.751 13.5164Z" fill="#233138"/>
<path fill-rule="evenodd" clip-rule="evenodd" d="M147.514 2.51894H2.48619V34.4256H147.514V2.51894ZM0 0V36.9445H150V0H0Z" fill="#233138"/>
</svg>
