<svg width="79" height="57" viewBox="0 0 79 57" fill="none" xmlns="http://www.w3.org/2000/svg">
<path fill-rule="evenodd" clip-rule="evenodd" d="M76.2759 2.71429H2.72414V54.2857H76.2759V2.71429ZM0 0V57H79V0H0Z" fill="#233138"/>
<path d="M28.8057 12.6667L24.6449 24.4328H22.5892L19.8593 16.6494L17.1129 24.4328H15.0572L10.8965 12.6667H13.5113L16.2084 20.7972L19.037 12.6667H20.8296L23.5924 20.9129L26.3553 12.6667H28.8057Z" fill="#233138"/>
<path d="M34.3967 12.6667H36.9622V24.4328H34.3967V12.6667Z" fill="#233138"/>
<path d="M53.5694 12.6667V24.4328H51.6617L45.8236 16.9303V24.4328H43.4225V12.6667H45.3137L51.1519 20.1527V12.6667H53.5694Z" fill="#233138"/>
<path d="M60.0286 12.6667H68.1034V14.6663H62.5283V17.4426H67.758V19.4587H62.5283V22.4332H68.1034V24.4328H60.0286V12.6667Z" fill="#233138"/>
<path d="M15.863 45.2382C14.975 45.2382 14.1198 45.1225 13.2975 44.8911C12.4862 44.6488 11.812 44.3128 11.2747 43.8831L12.097 42.0323C13.2263 42.8255 14.4871 43.2221 15.8795 43.2221C16.625 43.2221 17.1951 43.1064 17.5898 42.8751C17.9955 42.6327 18.1983 42.2967 18.1983 41.867C18.1983 41.4924 18.0119 41.2005 17.6391 40.9912C17.2773 40.7708 16.636 40.5615 15.715 40.3632C14.6844 40.1539 13.8622 39.9005 13.2482 39.603C12.6452 39.2946 12.2012 38.9255 11.9161 38.4958C11.642 38.0552 11.505 37.5098 11.505 36.8598C11.505 36.1548 11.6968 35.5213 12.0806 34.9594C12.4753 34.3976 13.0234 33.9624 13.7251 33.6539C14.4268 33.3344 15.2381 33.1747 16.1591 33.1747C16.9923 33.1747 17.7926 33.2959 18.5601 33.5382C19.3276 33.7806 19.9415 34.1111 20.402 34.5298L19.5797 36.3806C18.5491 35.5874 17.4144 35.1908 16.1755 35.1908C15.5177 35.1908 14.9914 35.323 14.5967 35.5874C14.202 35.8518 14.0047 36.2098 14.0047 36.6615C14.0047 36.9259 14.076 37.1463 14.2185 37.3225C14.372 37.4988 14.6241 37.6586 14.975 37.8018C15.3258 37.934 15.8247 38.0662 16.4715 38.1984C17.9735 38.5289 19.0535 38.9585 19.7113 39.4874C20.3801 40.0162 20.7145 40.7378 20.7145 41.6522C20.7145 42.7539 20.2869 43.6297 19.4317 44.2797C18.5765 44.9187 17.387 45.2382 15.863 45.2382Z" fill="#233138"/>
<path d="M36.325 33.3234V45.0894H33.8088V40.1484H28.3818V45.0894H25.8656V33.3234H28.3818V38.0827H33.8088V33.3234H36.325Z" fill="#233138"/>
<path d="M47.3484 45.2382C46.1862 45.2382 45.1721 44.9958 44.3059 44.5111C43.4508 44.0153 42.7875 43.3102 42.316 42.3958C41.8556 41.4814 41.6253 40.4128 41.6253 39.1899C41.6253 37.967 41.8556 36.9039 42.316 36.0005C42.7875 35.0971 43.4508 34.4031 44.3059 33.9183C45.1721 33.4226 46.1862 33.1747 47.3484 33.1747C48.5105 33.1747 49.5192 33.4226 50.3743 33.9183C51.2295 34.4031 51.8873 35.0971 52.3478 36.0005C52.8083 36.9039 53.0385 37.967 53.0385 39.1899C53.0385 40.4128 52.8083 41.4814 52.3478 42.3958C51.8873 43.3102 51.2295 44.0153 50.3743 44.5111C49.5192 44.9958 48.5105 45.2382 47.3484 45.2382ZM47.3484 43.2221C48.3351 43.2221 49.1026 42.8751 49.6507 42.181C50.2099 41.4869 50.4895 40.4899 50.4895 39.1899C50.4895 37.8899 50.2099 36.8984 49.6507 36.2153C49.1026 35.5323 48.3351 35.1908 47.3484 35.1908C46.3616 35.1908 45.5887 35.5323 45.0295 36.2153C44.4814 36.8984 44.2073 37.8899 44.2073 39.1899C44.2073 40.5009 44.4814 41.5034 45.0295 42.1975C45.5887 42.8806 46.3616 43.2221 47.3484 43.2221Z" fill="#233138"/>
<path d="M58.3327 33.3234H63.6446C64.9383 33.3234 65.9415 33.6374 66.6541 34.2654C67.3777 34.8933 67.7395 35.7471 67.7395 36.8268C67.7395 37.8954 67.3777 38.7492 66.6541 39.3882C65.9305 40.0162 64.9273 40.3302 63.6446 40.3302H60.8982V45.0894H58.3327V33.3234ZM63.3157 38.3636C64.6532 38.3636 65.322 37.8569 65.322 36.8433C65.322 35.8187 64.6532 35.3065 63.3157 35.3065H60.8982V38.3636H63.3157Z" fill="#233138"/>
</svg>
