<svg width="150" height="37" viewBox="0 0 150 37" fill="none" xmlns="http://www.w3.org/2000/svg">
<path d="M16.4816 15.1303L13.3399 15.1303L13.3398 13.3411L21.8492 13.341L21.8492 15.1303L18.7075 15.1303L18.7076 23.372L16.4816 23.372L16.4816 15.1303Z" fill="white"/>
<path d="M35.7113 23.3719L33.3867 23.3719L32.1046 20.033C32.0013 19.77 31.8416 19.5868 31.6256 19.4835C31.419 19.3802 31.156 19.3286 30.8367 19.3286L29.4137 19.3286L29.4138 23.3719L27.2441 23.3719L27.2441 13.341L31.7101 13.341C32.8748 13.341 33.7576 13.5946 34.3587 14.1018C34.9599 14.6089 35.2604 15.3368 35.2604 16.2855C35.2604 16.9523 35.082 17.5252 34.7251 18.0042C34.3775 18.4832 33.8751 18.8261 33.2176 19.0327C33.8093 19.1548 34.2367 19.5634 34.4997 20.2584L35.7113 23.3719ZM31.3861 17.652C32.0154 17.652 32.4756 17.5487 32.7668 17.3421C33.0579 17.1261 33.2035 16.7926 33.2035 16.3418C33.2035 15.891 33.0579 15.5623 32.7668 15.3556C32.4756 15.1396 32.0154 15.0316 31.3861 15.0316L29.3855 15.0316L29.3856 17.6521L31.3861 17.652Z" fill="white"/>
<path d="M41.4453 13.341L43.6431 13.3409L43.6431 23.3719L41.4454 23.3719L41.4453 13.341Z" fill="white"/>
<path d="M58.5744 13.3409L58.5744 23.3718L56.9402 23.3718L51.9388 16.9757L51.9388 23.3719L49.8819 23.3719L49.8818 13.3409L51.502 13.3409L56.5034 19.7229L56.5034 13.3409L58.5744 13.3409Z" fill="white"/>
<path d="M71.3775 23.3718L67.0101 18.7367L67.0101 23.3718L64.8123 23.3718L64.8122 13.3409L67.01 13.3409L67.0101 17.7505L71.2225 13.3408L73.8429 13.3408L69.1797 18.1309L74.0261 23.3718L71.3775 23.3718Z" fill="white"/>
<path d="M101.468 13.3407L97.9034 23.3717L96.1423 23.3717L93.8036 16.7361L91.4509 23.3717L89.6899 23.3717L86.1255 13.3408L88.3655 13.3408L90.676 20.2723L93.0992 13.3408L94.6348 13.3407L97.0017 20.3708L99.3686 13.3407L101.468 13.3407Z" fill="white"/>
<path d="M106.962 13.3407L113.879 13.3407L113.879 15.0454L109.103 15.0454L109.103 17.4122L113.583 17.4122L113.583 19.131L109.103 19.131L109.103 21.6669L113.879 21.6669L113.879 23.3716L106.962 23.3716L106.962 13.3407Z" fill="white"/>
<path d="M119.622 13.3406L121.82 13.3406L121.82 23.3716L119.622 23.3716L119.622 13.3406Z" fill="white"/>
<path d="M136.751 13.3406L136.751 23.3715L135.117 23.3715L130.116 16.9754L130.116 23.3715L128.059 23.3716L128.059 13.3406L129.679 13.3406L134.68 19.7226L134.68 13.3406L136.751 13.3406Z" fill="white"/>
<path fill-rule="evenodd" clip-rule="evenodd" d="M147.514 2.48619H2.48619V33.9779H147.514V2.48619ZM0 0V36.4641H150V0H0Z" fill="white"/>
</svg>
