<svg width="150" height="37" viewBox="0 0 150 37" fill="none" xmlns="http://www.w3.org/2000/svg">
<path d="M16.4825 15.1303L13.3408 15.1303L13.3408 13.3411L21.8502 13.341L21.8502 15.1303L18.7085 15.1303L18.7085 23.372L16.4826 23.372L16.4825 15.1303Z" fill="#233138"/>
<path d="M35.7122 23.3719L33.3877 23.3719L32.1056 20.033C32.0023 19.77 31.8426 19.5868 31.6266 19.4835C31.42 19.3802 31.157 19.3286 30.8376 19.3286L29.4147 19.3286L29.4147 23.3719L27.2451 23.3719L27.2451 13.341L31.7111 13.341C32.8757 13.341 33.7586 13.5946 34.3597 14.1018C34.9608 14.6089 35.2614 15.3368 35.2614 16.2855C35.2614 16.9523 35.0829 17.5252 34.726 18.0042C34.3785 18.4832 33.876 18.8261 33.2186 19.0327C33.8103 19.1548 34.2376 19.5634 34.5006 20.2584L35.7122 23.3719ZM31.3871 17.652C32.0164 17.652 32.4766 17.5487 32.7677 17.3421C33.0589 17.1261 33.2045 16.7926 33.2045 16.3418C33.2045 15.891 33.0589 15.5623 32.7677 15.3556C32.4766 15.1396 32.0164 15.0316 31.3871 15.0316L29.3865 15.0316L29.3865 17.6521L31.3871 17.652Z" fill="#233138"/>
<path d="M41.4463 13.341L43.6441 13.3409L43.6441 23.3719L41.4463 23.3719L41.4463 13.341Z" fill="#233138"/>
<path d="M58.5754 13.3409L58.5754 23.3718L56.9411 23.3718L51.9397 16.9757L51.9398 23.3719L49.8829 23.3719L49.8828 13.3409L51.503 13.3409L56.5044 19.7229L56.5044 13.3409L58.5754 13.3409Z" fill="#233138"/>
<path d="M71.3784 23.3718L67.011 18.7367L67.0111 23.3718L64.8133 23.3718L64.8132 13.3409L67.011 13.3409L67.011 17.7505L71.2234 13.3408L73.8439 13.3408L69.1806 18.1309L74.0271 23.3718L71.3784 23.3718Z" fill="#233138"/>
<path d="M101.469 13.3407L97.9044 23.3717L96.1433 23.3717L93.8046 16.7361L91.4519 23.3717L89.6908 23.3717L86.1264 13.3408L88.3665 13.3408L90.677 20.2723L93.1002 13.3408L94.6358 13.3407L97.0027 20.3708L99.3695 13.3407L101.469 13.3407Z" fill="#233138"/>
<path d="M106.963 13.3407L113.88 13.3407L113.88 15.0454L109.104 15.0454L109.104 17.4122L113.584 17.4122L113.584 19.131L109.104 19.131L109.104 21.6669L113.88 21.6669L113.88 23.3716L106.963 23.3716L106.963 13.3407Z" fill="#233138"/>
<path d="M119.623 13.3406L121.821 13.3406L121.821 23.3716L119.623 23.3716L119.623 13.3406Z" fill="#233138"/>
<path d="M136.752 13.3406L136.752 23.3715L135.118 23.3715L130.117 16.9754L130.117 23.3715L128.06 23.3716L128.06 13.3406L129.68 13.3406L134.681 19.7226L134.681 13.3406L136.752 13.3406Z" fill="#233138"/>
<path fill-rule="evenodd" clip-rule="evenodd" d="M147.514 2.48619H2.48619V33.9779H147.514V2.48619ZM0 0V36.4641H150V0H0Z" fill="#233138"/>
</svg>
