<svg width="520" height="520" viewBox="0 0 520 520" fill="none" xmlns="http://www.w3.org/2000/svg">
  <defs>
    <linearGradient id="shapeA" x1="77" y1="54" x2="427" y2="442" gradientUnits="userSpaceOnUse">
      <stop offset="0" stop-color="#CBB38E" stop-opacity="0.42"/>
      <stop offset="1" stop-color="#9DAB8E" stop-opacity="0.22"/>
    </linearGradient>
    <linearGradient id="shapeB" x1="159" y1="132" x2="371" y2="392" gradientUnits="userSpaceOnUse">
      <stop offset="0" stop-color="#8D9A7F" stop-opacity="0.28"/>
      <stop offset="1" stop-color="#D8C4A3" stop-opacity="0.1"/>
    </linearGradient>
  </defs>
  <path d="M173.378 69.6991C228.17 43.6168 290.628 46.1801 343.091 76.7193L389.955 104.003C444.476 135.746 476.725 194.685 474.143 257.716C471.56 320.747 434.549 376.841 377.632 404.022L319.523 431.769C261.642 459.407 193.161 455.108 139.199 420.343L122.487 409.576C71.4043 376.661 40.7936 319.94 41.5352 259.175C42.2768 198.41 74.2639 142.452 126.136 110.794L173.378 69.6991Z" fill="url(#shapeA)"/>
  <path d="M208.778 128.265C242.709 109.185 284.365 109.518 317.986 129.139L347.383 146.3C382.078 166.557 403.623 203.66 404.078 243.834C404.533 284.008 383.832 321.588 349.603 342.625L311.779 365.871C277.341 387.043 234.028 387.781 198.888 367.794L180.803 357.507C146.289 337.872 124.622 301.645 123.79 262.082C122.958 222.519 143.082 185.408 176.739 164.336L208.778 128.265Z" fill="url(#shapeB)"/>
</svg>
