<svg width="17" height="13" viewBox="0 0 17 13" fill="none" xmlns="http://www.w3.org/2000/svg">
<path d="M4.46094 6.56848H4.74633L4.60425 6.09521L4.46094 6.56848Z" fill="#929292"/>
<path d="M16.2273 0H0.772727C0.345976 0 0 0.345976 0 0.772727V11.8117C0 12.2384 0.345976 12.5844 0.772727 12.5844H16.2273C16.654 12.5844 17 12.2384 17 11.8117V0.772727C17 0.345976 16.654 0 16.2273 0ZM5.32826 7.76874C5.19747 7.76874 5.08676 7.69039 5.04632 7.56912C5.04565 7.56706 5.04503 7.56495 5.04436 7.56289L4.92933 7.17755H4.27869L4.16454 7.5598C4.13038 7.68503 4.01535 7.76874 3.87626 7.76874C3.71398 7.76874 3.53883 7.65299 3.53883 7.46588C3.53883 7.45074 3.53883 7.41463 3.55372 7.37367L4.2739 5.03375C4.31676 4.89672 4.44689 4.80878 4.60566 4.80878C4.76371 4.80878 4.89476 4.89528 4.93943 5.02912L5.66002 7.38135C5.66306 7.39108 5.66533 7.40108 5.66682 7.41118C5.66986 7.42498 5.67254 7.44198 5.67254 7.46243C5.67259 7.64567 5.49455 7.76874 5.32826 7.76874ZM8.30682 7.47279C8.30682 7.6415 8.16917 7.76874 7.98665 7.76874C7.80712 7.76874 7.66649 7.63877 7.66649 7.47279V6.36058L7.48082 6.7117C7.4189 6.82782 7.3186 6.89407 7.20527 6.89407C7.1399 6.89407 7.01775 6.87047 6.93358 6.71227L6.75106 6.36166V7.47279C6.75106 7.63872 6.61048 7.76874 6.43089 7.76874C6.24838 7.76874 6.11078 7.6415 6.11078 7.47279V5.14616C6.11078 4.96266 6.24539 4.82949 6.43089 4.82949C6.65658 4.82949 6.76224 5.03272 6.79696 5.09954L7.20877 5.89441L7.62043 5.09979C7.71372 4.92037 7.83685 4.82949 7.9866 4.82949C8.17509 4.82949 8.30677 4.95972 8.30677 5.14616V7.47279H8.30682ZM10.4273 5.99106C10.5913 5.99106 10.7198 6.12711 10.7198 6.30082C10.7198 6.47154 10.5941 6.60022 10.4273 6.60022H10.0906V7.14572H10.9908C11.1548 7.14572 11.2833 7.28331 11.2833 7.45893C11.2833 7.63552 11.1576 7.76869 10.9908 7.76869H9.76006C9.58635 7.76869 9.4503 7.63872 9.4503 7.47274V5.12189C9.4503 4.95514 9.58347 4.82939 9.76006 4.82939H10.9908C11.1576 4.82939 11.2833 4.96106 11.2833 5.1357C11.2833 5.31621 11.1576 5.45241 10.9908 5.45241H10.0906V5.99101H10.4273V5.99106ZM13.1203 7.77565C12.941 7.77565 12.8624 7.61832 12.8288 7.55114L12.5014 6.93193L12.1719 7.55526C12.1405 7.61832 12.0618 7.77565 11.8826 7.77565C11.7213 7.77565 11.5417 7.64418 11.5417 7.45548C11.5417 7.40422 11.5534 7.356 11.5773 7.30809C11.5782 7.30614 11.5792 7.30423 11.5802 7.30237L12.1224 6.2968L11.5913 5.3006C11.5606 5.24594 11.5452 5.18814 11.5452 5.12885C11.5452 4.95705 11.6949 4.82254 11.886 4.82254C12.0646 4.82254 12.1489 4.98064 12.1849 5.04818L12.5014 5.65265L12.8167 5.05055C12.8542 4.98033 12.9383 4.82254 13.1168 4.82254C13.308 4.82254 13.4577 4.9571 13.4577 5.12885C13.4577 5.18809 13.4421 5.24594 13.4115 5.30075L12.8773 6.2968L13.4224 7.30191C13.4235 7.30397 13.4246 7.30603 13.4256 7.30809C13.4496 7.356 13.4612 7.40422 13.4612 7.45548C13.4612 7.64418 13.2815 7.77565 13.1203 7.77565Z" fill="#929292"/>
</svg>
