<svg width="16" height="16" viewBox="0 0 16 16" fill="none" xmlns="http://www.w3.org/2000/svg">
<g clip-path="url(#clip0)">
<path d="M10.9987 0C10.1457 0.0589997 9.14869 0.604996 8.56769 1.31599C8.0377 1.96099 7.6017 2.91898 7.7717 3.84998C8.70369 3.87898 9.66669 3.31998 10.2247 2.59698C10.7467 1.92399 11.1417 0.971994 10.9987 0Z" fill="#929292"/>
<path d="M14.3696 5.36786C13.5506 4.34087 12.3996 3.74487 11.3126 3.74487C9.87759 3.74487 9.27059 4.43187 8.2736 4.43187C7.2456 4.43187 6.46461 3.74687 5.22362 3.74687C4.00462 3.74687 2.70663 4.49187 1.88364 5.76586C0.726643 7.55985 0.924642 10.9328 2.79963 13.8058C3.47063 14.8338 4.36662 15.9898 5.53861 15.9998C6.58161 16.0098 6.87561 15.3308 8.2886 15.3238C9.70159 15.3158 9.96959 16.0088 11.0106 15.9978C12.1836 15.9888 13.1286 14.7078 13.7996 13.6798C14.2806 12.9428 14.4596 12.5718 14.8326 11.7398C12.1196 10.7068 11.6846 6.84886 14.3696 5.36786Z" fill="#929292"/>
</g>
<defs>
<clipPath id="clip0">
<rect width="16" height="16" fill="white"/>
</clipPath>
</defs>
</svg>
