<svg width="18" height="20" viewBox="0 0 18 20" fill="none" xmlns="http://www.w3.org/2000/svg">
<path d="M5.68597 19.56C2.57409 19.5432 0 13.6006 0 10.5742C0 5.63059 3.96433 4.54829 5.49216 4.54829C6.18068 4.54829 6.91588 4.80124 7.56435 5.02507C8.01781 5.18121 8.48679 5.34238 8.74762 5.34238C8.90375 5.34238 9.27165 5.20527 9.59648 5.08497C10.2892 4.82699 11.1512 4.50635 12.155 4.50635C12.1568 4.50635 12.1592 4.50635 12.161 4.50635C12.9105 4.50635 15.1831 4.66023 16.5494 6.57971L16.8695 7.02963L16.4089 7.35477C15.7509 7.81925 14.5502 8.66651 14.5502 10.3448C14.5502 12.3326 15.91 13.097 16.5632 13.4647C16.8516 13.627 17.15 13.7943 17.15 14.1603C17.15 14.3992 15.1113 19.5303 12.1508 19.5303C11.4264 19.5303 10.9143 19.3266 10.4626 19.147C10.0056 18.9651 9.61138 18.8085 8.95994 18.8085C8.62972 18.8085 8.21216 18.9545 7.77009 19.1095C7.16598 19.3204 6.48219 19.56 5.70631 19.56H5.68597Z" fill="white"/>
<path d="M12.4692 0C12.5463 2.60072 10.5581 4.40497 8.5722 4.29182C8.24497 2.21635 10.5578 0 12.4692 0Z" fill="white"/>
</svg>
