<svg width="18" height="18" viewBox="0 0 18 18" fill="none" xmlns="http://www.w3.org/2000/svg">
<path d="M3 1.79993H0.6C0.2688 1.79993 0 2.06873 0 2.39993V4.79993C0 5.13113 0.2688 5.39993 0.6 5.39993C0.9312 5.39993 1.2 5.13113 1.2 4.79993V2.99993H3C3.3312 2.99993 3.6 2.73113 3.6 2.39993C3.6 2.06873 3.3312 1.79993 3 1.79993Z" fill="#233138"/>
<path d="M17.4004 12.6C17.0692 12.6 16.8004 12.8688 16.8004 13.2V15H15.0004C14.6692 15 14.4004 15.2688 14.4004 15.6C14.4004 15.9312 14.6692 16.2 15.0004 16.2H17.4004C17.7316 16.2 18.0004 15.9312 18.0004 15.6V13.2C18.0004 12.8688 17.7316 12.6 17.4004 12.6Z" fill="#233138"/>
<path d="M17.4004 1.79993H15.0004C14.6692 1.79993 14.4004 2.06873 14.4004 2.39993C14.4004 2.73113 14.6692 2.99993 15.0004 2.99993H16.8004V4.79993C16.8004 5.13113 17.0692 5.39993 17.4004 5.39993C17.7316 5.39993 18.0004 5.13113 18.0004 4.79993V2.39993C18.0004 2.06873 17.7316 1.79993 17.4004 1.79993Z" fill="#233138"/>
<path d="M3 15H1.2V13.2C1.2 12.8688 0.9312 12.6 0.6 12.6C0.2688 12.6 0 12.8688 0 13.2V15.6C0 15.9312 0.2688 16.2 0.6 16.2H3C3.3312 16.2 3.6 15.9312 3.6 15.6C3.6 15.2688 3.3312 15 3 15Z" fill="#233138"/>
<path d="M3.60039 4.19995H2.40039V13.8H3.60039V4.19995Z" fill="#233138"/>
<path d="M6.00078 4.19995H4.80078V11.4H6.00078V4.19995Z" fill="#233138"/>
<path d="M8.40117 4.19995H7.20117V11.4H8.40117V4.19995Z" fill="#233138"/>
<path d="M10.7996 4.19995H9.59961V13.8H10.7996V4.19995Z" fill="#233138"/>
<path d="M13.2 4.19995H12V11.4H13.2V4.19995Z" fill="#233138"/>
<path d="M15.6004 4.19995H14.4004V13.8H15.6004V4.19995Z" fill="#233138"/>
<path d="M6.00078 12.6H4.80078V13.8H6.00078V12.6Z" fill="#233138"/>
<path d="M8.40117 12.6H7.20117V13.8H8.40117V12.6Z" fill="#233138"/>
<path d="M13.2 12.6H12V13.8H13.2V12.6Z" fill="#233138"/>
</svg>
