<svg width="9" height="24" viewBox="0 0 9 24" fill="none" xmlns="http://www.w3.org/2000/svg">
<path d="M5.90081 7.33532C5.90081 5.83133 5.90081 0 5.90081 0H4.74905H3.85493H2.70285C2.70285 0 2.70285 5.83059 2.70285 7.33532C2.70285 8.84006 0 11.1436 0 12.4358C0 13.7287 0 22.0048 0 22.6397C0 23.2746 0.469864 23.722 0.963592 23.722C1.29009 23.722 2.84292 23.722 3.85493 23.722C4.37152 23.722 4.74905 23.722 4.74905 23.722C5.76111 23.722 7.31395 23.722 7.64044 23.722C8.13417 23.722 8.60323 23.2746 8.60323 22.6397C8.60323 22.0048 8.60323 13.7287 8.60323 12.4358C8.60323 11.1435 5.90081 8.83925 5.90081 7.33532Z" fill="#A88A63"/>
</svg>
