<svg width="18" height="17" viewBox="0 0 18 17" fill="none" xmlns="http://www.w3.org/2000/svg">
  <g clip-path="url(#clip0)">
    <path d="M13.3761 6.36881L9.74312 1.03747C9.57795 0.875911 9.33027 0.714355 9.08257 0.714355C8.83486 0.714355 8.58716 0.795133 8.42202 1.03747L4.78899 6.36881H0.825688C0.330275 6.36881 0 6.69192 0 7.17658C0 7.25736 0 7.33814 0 7.41892L2.06422 14.9313C2.22936 15.5775 2.88991 16.1429 3.63303 16.1429H14.367C15.1101 16.1429 15.7706 15.6583 15.9358 14.9313L18 7.41892C18 7.33814 18 7.25736 18 7.17658C18 6.69192 17.6697 6.36881 17.1743 6.36881H13.3761V6.36881ZM6.6055 6.36881L9.08257 2.81458L11.5596 6.36881H6.6055Z" fill="white"/>
  </g>
  <defs>
    <clipPath id="clip0">
      <rect y="0.714355" width="18" height="15.4286" rx="7.71429" fill="white"/>
    </clipPath>
  </defs>
</svg>
