<svg width="36" height="30" viewBox="0 0 36 30" fill="none" xmlns="http://www.w3.org/2000/svg">
<path d="M28.6172 0H7.38281C3.31183 0 0 3.35165 0 7.47158V19.0114C0 22.2988 2.13272 25.1621 5.22318 26.0785L8.78879 29.6873C8.98682 29.8874 9.25488 30 9.53476 30C9.81436 30 10.0827 29.8874 10.2805 29.6873L13.5514 26.3768H28.6172C32.6882 26.3768 36 23.0251 36 18.9052V7.47158C36 3.35165 32.6882 0 28.6172 0ZM10.2486 15.0749C10.2486 14.4854 10.7207 14.0075 11.3033 14.0075H24.6967C25.2793 14.0075 25.7514 14.4854 25.7514 15.0749C25.7514 15.6645 25.2793 16.1423 24.6967 16.1423H11.3033C10.7207 16.1423 10.2486 15.6645 10.2486 15.0749ZM24.6967 12.3692H11.3033C10.7207 12.3692 10.2486 11.8914 10.2486 11.3019C10.2486 10.7126 10.7207 10.2345 11.3033 10.2345H24.6967C25.2793 10.2345 25.7514 10.7126 25.7514 11.3019C25.7514 11.8914 25.2793 12.3692 24.6967 12.3692Z" fill="#233138"/>
</svg>
