<svg width="33" height="33" viewBox="0 0 33 33" fill="none" xmlns="http://www.w3.org/2000/svg">
<g clip-path="url(#clip0)">
<path d="M32.3418 15.2294C30.2192 14.4671 28.9136 12.3069 29.0777 10.6012C29.0777 10.3208 28.9096 10.0602 28.6972 9.87611C28.4848 9.69293 28.1553 9.61365 27.8796 9.658C24.6449 10.1326 21.6831 7.76618 21.3896 4.43976C21.3632 4.13954 21.1989 3.86948 20.944 3.70803C20.69 3.54754 20.3737 3.51261 20.0933 3.61741C17.4714 4.57756 14.9941 2.84146 14.0056 0.579294C13.8205 0.15629 13.3617 -0.0769008 12.9094 0.0231945C5.46683 1.68395 0 8.87251 0 16.5002C0 25.5629 7.43722 33.0001 16.4999 33.0001C25.5627 33.0001 32.9999 25.5629 32.9999 16.5002C32.973 15.9244 32.969 15.4541 32.3418 15.2294ZM6.78367 17.5397C6.24974 17.5397 5.81687 17.1069 5.81687 16.573C5.81687 16.0389 6.24974 15.6062 6.78367 15.6062C7.3176 15.6062 7.75046 16.0389 7.75046 16.573C7.75046 17.1069 7.31753 17.5397 6.78367 17.5397ZM10.6992 25.2013C9.09985 25.2013 7.7988 23.9003 7.7988 22.3009C7.7988 20.7016 9.09985 19.4006 10.6992 19.4006C12.2985 19.4006 13.5996 20.7016 13.5996 22.3009C13.5996 23.9003 12.2986 25.2013 10.6992 25.2013ZM11.666 13.5998C10.6001 13.5998 9.73239 12.7321 9.73239 11.6662C9.73239 10.6003 10.6001 9.73263 11.666 9.73263C12.7319 9.73263 13.5996 10.6003 13.5996 11.6662C13.5996 12.7321 12.7319 13.5998 11.666 13.5998ZM19.4003 27.1349C18.3344 27.1349 17.4667 26.2672 17.4667 25.2013C17.4667 24.1354 18.3344 23.2677 19.4003 23.2677C20.4662 23.2677 21.3339 24.1354 21.3339 25.2013C21.3339 26.2672 20.4662 27.1349 19.4003 27.1349ZM20.3671 19.4006C18.7678 19.4006 17.4667 18.0995 17.4667 16.5002C17.4667 14.9009 18.7678 13.5998 20.3671 13.5998C21.9665 13.5998 23.2675 14.9009 23.2675 16.5002C23.2675 18.0995 21.9665 19.4006 20.3671 19.4006ZM26.1195 21.4069C25.5856 21.4069 25.1527 20.9741 25.1527 20.4401C25.1527 19.9061 25.5856 19.4733 26.1195 19.4733C26.6535 19.4733 27.0863 19.9061 27.0863 20.4401C27.0863 20.9741 26.6534 21.4069 26.1195 21.4069Z" fill="#233138"/>
</g>
<defs>
<clipPath id="clip0">
<rect width="33" height="33" fill="white"/>
</clipPath>
</defs>
</svg>
