<svg width="20" height="10" viewBox="0 0 20 10" fill="none" xmlns="http://www.w3.org/2000/svg">
<path d="M3.22266 3.72572C3.22266 3.96397 3.34736 4.06708 3.56584 4.16269V3.2663C3.33708 3.33882 3.22266 3.49199 3.22266 3.72572Z" fill="#4A443D"/>
<path d="M4.32617 5.32404V6.24741C4.6248 6.19366 4.77424 6.04554 4.77424 5.80298C4.7742 5.53792 4.58058 5.4298 4.32617 5.32404Z" fill="#4A443D"/>
<path d="M17.934 0H1.12929C0.505593 0 0 0.505593 0 1.12929V8.56814C0 9.19184 0.505593 9.69743 1.12929 9.69743H17.934C18.5577 9.69743 19.0633 9.19184 19.0633 8.56814V1.12929C19.0633 0.505593 18.5577 0 17.934 0ZM7.99143 1.63903H12.7873C13.1306 1.63903 13.4089 1.91736 13.4089 2.26066C13.4089 2.60397 13.1306 2.88229 12.7873 2.88229H7.99143C7.64812 2.88229 7.3698 2.60397 7.3698 2.26066C7.3698 1.91736 7.64812 1.63903 7.99143 1.63903ZM4.32762 7.0429V7.6008C4.32762 7.69553 4.25083 7.77232 4.1561 7.77232H3.7372C3.64246 7.77232 3.56567 7.69553 3.56567 7.6008V7.02786C3.08996 6.96392 2.63675 6.79653 2.26108 6.56139C2.18569 6.51419 2.15876 6.41709 2.19937 6.33793L2.42415 5.89939C2.44645 5.85588 2.48631 5.82393 2.53364 5.81162C2.58097 5.79931 2.63132 5.80785 2.67202 5.83495C2.92688 6.00466 3.31826 6.15273 3.56567 6.21079V5.0839C2.8382 4.87951 2.31491 4.61424 2.31491 3.86633C2.31491 3.16795 2.74483 2.62622 3.56567 2.48076V1.93087C3.56567 1.83613 3.64246 1.75934 3.7372 1.75934H4.1561C4.25083 1.75934 4.32762 1.83613 4.32762 1.93087V2.46576C4.71502 2.51756 5.09712 2.66252 5.41767 2.8568C5.496 2.90426 5.52327 3.00496 5.47946 3.0854L5.26048 3.48751C5.23802 3.52879 5.19961 3.559 5.15423 3.57114C5.10885 3.58328 5.06048 3.57628 5.02037 3.55179C4.84959 3.44752 4.57288 3.32348 4.32762 3.26613V4.39082C5.08792 4.60296 5.71523 4.84349 5.71523 5.71349C5.71519 6.54009 5.16376 6.95666 4.32762 7.0429ZM7.3698 4.84872C7.3698 4.50541 7.64812 4.22709 7.99143 4.22709H17.0972C17.4405 4.22709 17.7189 4.50541 17.7189 4.84872C17.7189 5.19202 17.4405 5.47035 17.0972 5.47035H7.99143C7.64812 5.47035 7.3698 5.19202 7.3698 4.84872ZM17.0972 8.04157H13.8233C13.48 8.04157 13.2017 7.76325 13.2017 7.41994C13.2017 7.07664 13.48 6.79831 13.8233 6.79831H17.0972C17.4405 6.79831 17.7189 7.07664 17.7189 7.41994C17.7189 7.76325 17.4405 8.04157 17.0972 8.04157Z" fill="#4A443D"/>
</svg>
