<svg width="148" height="148" viewBox="0 0 148 148" fill="none" xmlns="http://www.w3.org/2000/svg">
<circle cx="74" cy="74" r="74" fill="#F2EEE7"/>
<path d="M84.9541 69.5079L76.2752 56.7719C75.8807 56.3859 75.289 56 74.6972 56C74.1055 56 73.5138 56.193 73.1193 56.7719L64.4404 69.5079H54.9725C53.789 69.5079 53 70.2797 53 71.4375C53 71.6305 53 71.8235 53 72.0165L57.9312 89.9626C58.3257 91.5064 59.9037 92.8571 61.6789 92.8571H87.3211C89.0963 92.8571 90.6743 91.6993 91.0688 89.9626L96 72.0165C96 71.8235 96 71.6305 96 71.4375C96 70.2797 95.211 69.5079 94.0275 69.5079H84.9541V69.5079ZM68.7798 69.5079L74.6972 61.0172L80.6147 69.5079H68.7798Z" fill="#233138"/>
</svg>
