<svg width="18" height="18" viewBox="0 0 18 18" fill="none" xmlns="http://www.w3.org/2000/svg">
<path d="M17.2191 4.45224C17.2191 4.43321 17.2191 4.43321 17.2191 4.41419C17.2001 4.37613 17.2001 4.33808 17.1811 4.30003V4.281C17.1621 4.24295 17.124 4.20489 17.105 4.18587L17.0859 4.16684C17.0669 4.14781 17.0289 4.12879 17.0098 4.10976L16.9908 4.09073H16.9718L16.9528 4.07171L8.86643 0.05708C8.71421 -0.0190267 8.52395 -0.0190267 8.35271 0.05708L5.63189 1.40797L13.7563 5.57481L13.7753 5.59384C13.7943 5.59384 13.7943 5.61287 13.8134 5.61287C13.8324 5.63189 13.8324 5.65092 13.8514 5.66995C13.8514 5.68897 13.8514 5.68897 13.8514 5.708V5.72703V10.1412C13.8514 10.2173 13.8134 10.2744 13.7563 10.3125L12.12 11.1687C12.0249 11.2257 11.9107 11.1877 11.8536 11.0925C11.8346 11.0735 11.8346 11.0355 11.8346 10.9974V6.67836L3.61507 2.43541L3.59604 2.41639L0.304427 4.05268L0.2854 4.07171H0.266373L0.247347 4.09073C0.22832 4.10976 0.190267 4.12879 0.17124 4.14781L0.152213 4.16684C0.11416 4.20489 0.0951333 4.24295 0.05708 4.281V4.30003C0.0380533 4.33808 0.0190267 4.37613 0.0190267 4.41419C0.0190267 4.43321 0.0190267 4.43321 0.0190267 4.45224C0.0190267 4.49029 0 4.50932 0 4.54737V4.5664V13.4328C0 13.6421 0.11416 13.8514 0.323453 13.9465L8.33368 17.9421C8.44784 17.9992 8.58103 18.0183 8.71421 17.9802L8.75227 17.9612C8.79032 17.9612 8.80935 17.9421 8.8474 17.9231L16.9147 13.9275C17.105 13.8324 17.2382 13.6421 17.2382 13.4138V4.5664V4.54737C17.2191 4.50932 17.2191 4.49029 17.2191 4.45224Z" fill="#233138"/>
</svg>
