<svg width="26" height="30" viewBox="0 0 26 30" fill="none" xmlns="http://www.w3.org/2000/svg">
<path d="M24.6665 3.56736L12.8991 0.0370898C12.7344 -0.0123633 12.5588 -0.0123633 12.3939 0.0370898L0.626309 3.56736C0.25459 3.67887 0 4.02105 0 4.40918V17.3535C0 19.0371 0.681621 20.7606 2.02582 22.476C3.05244 23.7862 4.47281 25.1018 6.24732 26.3863C9.2284 28.5442 12.1639 29.868 12.2874 29.9232C12.4016 29.9744 12.5241 30 12.6465 30C12.769 30 12.8914 29.9745 13.0056 29.9232C13.1291 29.868 16.0645 28.5442 19.0456 26.3863C20.8201 25.1018 22.2404 23.7862 23.2671 22.476C24.6113 20.7606 25.2928 19.0372 25.2928 17.3535V4.40918C25.2928 4.02105 25.0383 3.67887 24.6665 3.56736Z" fill="#233138"/>
</svg>
