<svg width="26" height="25" viewBox="0 0 26 25" fill="none" xmlns="http://www.w3.org/2000/svg">
<path d="M7.21306 8.4893C8.42691 6.89243 10.3459 5.85933 12.502 5.85933C14.2757 5.85933 15.9433 6.55005 17.1976 7.80429L17.7155 8.32216L21.8587 4.17902L21.3408 3.66116C18.9799 1.30024 15.8409 0 12.502 0C9.16314 0 6.02415 1.30024 3.66318 3.66111C3.44887 3.87546 3.24355 4.09636 3.04688 4.32307L7.21306 8.4893Z" fill="white"/>
<path d="M20.6827 21.9551C20.9094 21.7585 21.1303 21.5531 21.3447 21.3388C23.7055 18.9779 25.0058 15.8389 25.0058 12.5C25.0058 11.7395 24.9369 10.9776 24.8011 10.2355L24.6912 9.63501H11.7734V15.4943H18.4361C17.9753 16.411 17.3162 17.1925 16.5221 17.7946L20.6827 21.9551Z" fill="white"/>
<path d="M15.2169 18.5649C14.3824 18.9371 13.4617 19.1407 12.502 19.1407C10.3459 19.1407 8.42691 18.1076 7.21306 16.5107L3.04688 20.6769C3.24355 20.9036 3.44887 21.1246 3.66318 21.3389C6.02415 23.6998 9.16314 25 12.502 25C15.0369 25 17.4562 24.2499 19.5077 22.8558L15.2169 18.5649Z" fill="white"/>
<path d="M6.43858 15.2116C6.06656 14.3832 5.85933 13.4655 5.85933 12.5001C5.85933 11.5348 6.06656 10.6171 6.43858 9.78869L2.14427 5.49438C0.750141 7.54588 0 9.9652 0 12.5001C0 15.0351 0.750141 17.4544 2.14427 19.5059L6.43858 15.2116Z" fill="white"/>
</svg>
