<svg width="20" height="19" viewBox="0 0 20 19" fill="none" xmlns="http://www.w3.org/2000/svg">
<path d="M9.82624 3.08289C9.78893 3.025 9.74569 2.97046 9.70363 2.91758C9.56326 2.74447 9.39623 2.60087 9.20848 2.48453C8.89041 2.28861 8.50779 2.1745 8.11984 2.1745C7.79823 2.1745 7.63298 2.21124 7.40198 2.29918C7.16506 2.38768 6.91215 2.50958 6.68412 2.73612C6.45786 2.95988 6.32282 3.18921 6.22805 3.42688C6.03734 3.90557 6.05984 4.53398 6.3933 5.03716C7.08984 6.09473 7.50149 7.29367 7.65252 8.52824C7.69339 8.8572 7.71886 9.18783 7.71886 9.5218C7.71886 11.1109 7.25746 12.665 6.3856 14.0148C6.35481 14.0626 6.32756 14.1105 6.30209 14.1595C6.1321 14.4812 6.0705 14.8291 6.10486 15.1681C6.1629 15.742 6.49518 16.2846 7.05845 16.6064C7.20416 16.6876 7.35756 16.75 7.51748 16.7967C7.70642 16.8513 7.90128 16.8802 8.09911 16.8802C8.80631 16.8802 9.44954 16.5412 9.81676 15.9735C10.9208 14.2636 11.5664 12.3282 11.7044 10.3328C11.7234 10.0634 11.7322 9.79287 11.7322 9.52124C11.7322 7.24692 11.0736 5.02046 9.82624 3.08289Z" fill="white"/>
<path d="M7.36776 8.43782C6.2193 6.94888 4.61833 5.64473 2.8071 4.733C2.5305 4.5944 2.22073 4.52148 1.90918 4.52148C1.20257 4.52148 0.55875 4.88328 0.225881 5.46717C-0.271053 6.33994 0.079585 7.42645 1.00652 7.89345C3.80156 9.29834 5.6045 11.979 5.81832 15.0765V15.0743C5.78633 14.7287 5.84616 14.3902 6.01555 14.0696C6.03865 14.024 6.06649 13.9761 6.09907 13.9249C6.97211 12.5751 7.43232 11.0211 7.43232 9.43082C7.43232 9.0974 7.40744 8.76678 7.36776 8.43782Z" fill="white"/>
<path d="M19.4305 5.1548C19.0941 3.76827 18.5936 2.41459 17.9433 1.12993C17.5944 0.443621 16.8475 0 16.0379 0C15.7263 0 15.4195 0.0645672 15.1352 0.192032C14.0863 0.661257 13.6397 1.84851 14.1366 2.83149C15.2081 4.95275 15.7352 7.19367 15.7352 9.52143C15.7352 11.8486 15.2045 14.0873 14.1538 16.1735C14.1384 16.2052 13.9548 16.5748 13.9548 17.0006C13.9536 17.1203 13.9672 17.2995 14.0081 17.4593C14.1443 18.0204 14.5346 18.5291 15.1577 18.8096C15.4438 18.9371 15.7447 19 16.0586 19C16.8274 19 17.5393 18.6009 17.9066 17.9725C18.3265 17.2311 18.7518 16.257 19.1214 15.0035C19.238 14.625 19.3364 14.271 19.4293 13.8869C19.7729 12.4715 19.9523 11.0115 19.9523 9.52032C19.9506 8.04752 19.7729 6.56748 19.4305 5.1548Z" fill="white"/>
<path d="M15.3061 7.76835C13.9319 5.70275 11.9401 3.85591 9.60938 2.5C9.623 2.50835 9.63662 2.5167 9.6384 2.51837C9.80009 2.62802 9.93632 2.74268 10.0791 2.9169C10.114 2.95921 10.1626 3.01988 10.2029 3.08222C11.4502 5.01979 12.11 7.24624 12.11 9.52057C12.11 9.79108 12.1 10.0627 12.0822 10.3321C13.082 12.1222 13.6281 14.1566 13.6281 16.2907C13.6281 16.4604 13.6305 16.7332 13.6269 16.9319C13.6376 16.7092 13.6962 16.4743 13.7821 16.2678C13.7951 16.235 13.8093 16.2038 13.8247 16.1732C14.8743 14.087 15.4062 11.8483 15.4062 9.52112C15.4067 8.72071 15.3493 8.13738 15.3061 7.76835Z" fill="white"/>
</svg>
