<svg width="33" height="40" viewBox="0 0 33 40" fill="none" xmlns="http://www.w3.org/2000/svg">
<path d="M23.2062 37.6562H10.4609V40H23.2062C28.38 40 32.5891 35.7908 32.5891 30.6171V30.29C31.8873 30.9495 31.0577 31.4741 30.1417 31.8225C29.5683 35.1315 26.6767 37.6562 23.2062 37.6562Z" fill="#233138"/>
<path d="M32.5895 18.3125V16.2947C32.5895 7.30977 25.2798 0 16.2948 0C7.30977 0 0 7.30977 0 16.2948V18.3125H4.51711V16.2828C4.51711 9.78859 9.80055 4.50516 16.2948 4.50516C22.789 4.50516 28.0724 9.78859 28.0724 16.2828V18.3125H32.5895Z" fill="#233138"/>
<path d="M32.59 20.6562H28.5088V29.862C30.8331 29.3973 32.59 27.3416 32.59 24.8827V20.6562Z" fill="#233138"/>
<path d="M4.08117 20.6562H0V24.8827C0 27.3416 1.75688 29.3973 4.08117 29.862V20.6562Z" fill="#233138"/>
<path d="M26.1645 30.0414V20.5757C26.1645 19.1222 24.9861 17.9438 23.5326 17.9438H19.4717V32.6733H23.5326C24.9861 32.6733 26.1645 31.4949 26.1645 30.0414Z" fill="#233138"/>
<path d="M6.4248 20.5757V30.0414C6.4248 31.495 7.60316 32.6733 9.05668 32.6733H13.1176V17.9438H9.05668C7.60316 17.9438 6.4248 19.1222 6.4248 20.5757Z" fill="#233138"/>
</svg>
