<svg width="11" height="11" viewBox="0 0 11 11" fill="none" xmlns="http://www.w3.org/2000/svg">
<g clip-path="url(#clip0)">
<path d="M10.7034 4.78447C10.7032 4.78422 10.7029 4.78397 10.7027 4.78371L6.21554 0.296753C6.02428 0.105408 5.76999 0 5.49951 0C5.22902 0 4.97473 0.105324 4.78339 0.296669L0.298611 4.78136C0.2971 4.78288 0.295589 4.78447 0.294079 4.78598C-0.0986826 5.18101 -0.0980112 5.82193 0.296009 6.21595C0.476024 6.39605 0.713779 6.50037 0.967983 6.51128C0.978306 6.51228 0.988712 6.51279 0.999202 6.51279H1.17804V9.81492C1.17804 10.4683 1.7097 11 2.36329 11H4.1188C4.29672 11 4.44107 10.8557 4.44107 10.6777V8.08887C4.44107 7.79069 4.6836 7.54815 4.98178 7.54815H6.01723C6.31541 7.54815 6.55795 7.79069 6.55795 8.08887V10.6777C6.55795 10.8557 6.70221 11 6.88021 11H8.63572C9.28932 11 9.82097 10.4683 9.82097 9.81492V6.51279H9.9868C10.2572 6.51279 10.5115 6.40746 10.7029 6.21612C11.0974 5.82143 11.0975 5.17941 10.7034 4.78447Z" fill="#233138"/>
</g>
<defs>
<clipPath id="clip0">
<rect width="11" height="11" fill="white"/>
</clipPath>
</defs>
</svg>
