<svg width="32" height="32" viewBox="0 0 32 32" fill="none" xmlns="http://www.w3.org/2000/svg">
<g clip-path="url(#clip0)">
<path d="M29.3126 0H11.1243C8.53892 0 6.43555 2.10331 6.43555 4.68873V25.8323H22.7194V28.2346C22.7194 29.2767 23.5673 30.1245 24.6093 30.1245C25.6499 30.1245 26.4965 29.2793 26.4992 28.2394V4.68873C26.4992 3.13741 27.7613 1.87539 29.3126 1.87539V0ZM14.4484 19.5814H10.1621V17.706H14.4484V19.5814ZM19.5505 23.5662C17.8495 23.5662 16.4656 22.1823 16.4656 20.4813C16.4656 18.7802 17.8495 17.3963 19.5505 17.3963C21.2516 17.3963 22.6355 18.7802 22.6355 20.4813C22.6355 22.1823 21.2516 23.5662 19.5505 23.5662ZM22.7726 15.8304H10.1621V13.955H22.7727V15.8304H22.7726ZM22.7726 12.0794H10.1621V10.204H22.7727V12.0794H22.7726ZM22.7726 8.32837H10.1621V6.45297H22.7727V8.32837H22.7726Z" fill="#233138"/>
<path d="M20.845 28.2347V27.7077H2.68555V28.2735C2.68555 30.3316 4.35396 32 6.41208 32H24.6103C22.5341 32 20.845 30.3108 20.845 28.2347Z" fill="#233138"/>
<path d="M19.5514 21.6909C20.2194 21.6909 20.7609 21.1494 20.7609 20.4814C20.7609 19.8133 20.2194 19.2718 19.5514 19.2718C18.8833 19.2718 18.3418 19.8133 18.3418 20.4814C18.3418 21.1494 18.8833 21.6909 19.5514 21.6909Z" fill="#233138"/>
</g>
<defs>
<clipPath id="clip0">
<rect width="32" height="32" fill="white"/>
</clipPath>
</defs>
</svg>
