<svg width="17" height="24" viewBox="0 0 17 24" fill="none" xmlns="http://www.w3.org/2000/svg">
<path d="M8.14676 0C3.65467 0 0 3.65467 0 8.14676C0 13.7928 8.15477 23.4375 8.15477 23.4375C8.15477 23.4375 16.2935 13.5152 16.2935 8.14676C16.2935 3.65467 12.639 0 8.14676 0ZM10.6048 10.5321C9.92703 11.2098 9.03697 11.5487 8.14676 11.5487C7.2567 11.5487 6.36635 11.2098 5.68886 10.5321C4.33345 9.17687 4.33345 6.9716 5.68886 5.61619C6.34518 4.95958 7.21822 4.59795 8.14676 4.59795C9.07531 4.59795 9.94821 4.95973 10.6048 5.61619C11.9602 6.9716 11.9602 9.17687 10.6048 10.5321Z" fill="#A88A63"/>
</svg>
