<svg width="20" height="13" viewBox="0 0 20 13" fill="none" xmlns="http://www.w3.org/2000/svg">
<path d="M13.568 0C12.249 0 11.0216 0.40358 10 1.09446C8.97827 0.40358 7.75101 0 6.43204 0C2.88544 0 0 2.91589 0 6.5C0 10.0841 2.88544 13 6.43204 13C7.75101 13 8.97842 12.5964 10 11.9055C11.0217 12.5964 12.249 13 13.568 13C17.1146 13 20 10.0841 20 6.5C20 2.91589 17.1146 0 13.568 0V0ZM13.568 11.8156C11.6527 11.8156 9.9733 10.7756 9.0535 9.22528H9.72946C10.0531 9.22528 10.3154 8.96019 10.3154 8.6331C10.3154 8.30616 10.0531 8.04091 9.72946 8.04091H8.53348C8.46115 7.80003 8.40515 7.55221 8.367 7.29822H10.6671C10.9906 7.29822 11.2531 7.03312 11.2531 6.70603C11.2531 6.3791 10.9906 6.11385 10.6671 6.11385H8.32169C8.33969 5.86109 8.37555 5.61311 8.42758 5.3713H9.72946C10.0531 5.3713 10.3154 5.10605 10.3154 4.77912C10.3154 4.45203 10.0531 4.18693 9.72946 4.18693H8.83255C9.68521 2.41146 11.4874 1.18437 13.568 1.18437C16.4684 1.18437 18.8281 3.56899 18.8281 6.5C18.8281 9.43101 16.4684 11.8156 13.568 11.8156Z" fill="#929292"/>
</svg>
