<svg width="18" height="21" viewBox="0 0 18 21" fill="none" xmlns="http://www.w3.org/2000/svg">
<path d="M17.4533 5.34462C17.4284 4.79836 17.4284 4.27694 17.4284 3.75551C17.4284 3.3334 17.1056 3.01062 16.6835 3.01062C13.5798 3.01062 11.221 2.11674 9.25941 0.204846C8.96145 -0.068282 8.51452 -0.068282 8.21656 0.204846C6.255 2.11674 3.89617 3.01062 0.792443 3.01062C0.370336 3.01062 0.047548 3.3334 0.047548 3.75551C0.047548 4.27694 0.047548 4.79836 0.0227182 5.34462C-0.0766011 10.5589 -0.22558 17.7099 8.48969 20.7143L8.73798 20.7639L8.98628 20.7143C17.6767 17.7099 17.5526 10.5837 17.4533 5.34462ZM8.14207 12.5701C7.99309 12.6942 7.81928 12.7687 7.62064 12.7687H7.59581C7.39717 12.7687 7.19854 12.6694 7.07439 12.5204L4.76521 9.96297L5.88256 8.96977L7.69513 10.981L11.7176 7.1572L12.7356 8.24971L8.14207 12.5701Z" fill="#233138"/>
</svg>
