<svg width="148" height="148" viewBox="0 0 148 148" fill="none" xmlns="http://www.w3.org/2000/svg">
<circle cx="74" cy="74" r="74" fill="#41AC85"/>
<g clip-path="url(#clip0)">
<path d="M66.1445 87.5623V98.7708C66.1445 99.5538 66.6472 100.247 67.3915 100.494C67.5776 100.554 67.7685 100.583 67.957 100.583C68.5225 100.583 69.0687 100.317 69.4167 99.8438L75.9731 90.9215L66.1445 87.5623Z" fill="white"/>
<path d="M102.239 45.3353C101.683 44.9414 100.953 44.8882 100.349 45.2048L45.974 73.6006C45.3312 73.9365 44.9518 74.6229 45.0049 75.3454C45.0605 76.0704 45.5414 76.6891 46.2254 76.9235L61.3416 82.0904L93.534 54.5645L68.623 84.5771L93.9569 93.236C94.1454 93.2989 94.3436 93.3327 94.5418 93.3327C94.8704 93.3327 95.1967 93.2433 95.4843 93.0693C95.9434 92.7889 96.2552 92.3177 96.3349 91.7884L102.981 47.0801C103.08 46.4034 102.795 45.7316 102.239 45.3353Z" fill="white"/>
</g>
<defs>
<clipPath id="clip0">
<rect width="58" height="58" fill="white" transform="translate(45 45)"/>
</clipPath>
</defs>
</svg>
