<svg width="32" height="32" viewBox="0 0 32 32" fill="none" xmlns="http://www.w3.org/2000/svg">
<g clip-path="url(#clip0)">
<path d="M24.6348 19.838C21.2908 19.838 18.5703 22.5659 18.5703 25.919C18.5703 29.2721 21.2908 32 24.6348 32C27.9787 32 30.6991 29.2721 30.6991 25.919C30.6991 22.5659 27.9787 19.838 24.6348 19.838ZM25.5723 26.8565H23.6973V24.9815H25.5723V26.8565Z" fill="#233138"/>
<path d="M20.7832 0V5.96438H26.1745L20.7832 0Z" fill="#233138"/>
<path d="M16.6957 25.9188C16.6957 21.5319 20.2576 17.9631 24.6351 17.9631C25.1613 17.9631 25.6757 18.0144 26.1738 18.1131V7.83938H18.9076V0H1.29883V32H19.5207C17.7945 30.5394 16.6957 28.3556 16.6957 25.9188ZM5.89508 8.0475L7.5382 9.69063L11.0882 6.14062L12.4138 7.46688L7.5382 12.3425L4.56945 9.37375L5.89508 8.0475ZM14.6276 25.0981H4.57383V23.2231H14.6276V25.0981ZM14.6276 21.3481H4.57383V19.4731H14.6276V21.3481ZM14.6276 17.5669H4.57383V15.6919H14.6276V17.5669Z" fill="#233138"/>
</g>
<defs>
<clipPath id="clip0">
<rect width="32" height="32" fill="white"/>
</clipPath>
</defs>
</svg>
