<svg width="14" height="14" viewBox="0 0 14 14" fill="none" xmlns="http://www.w3.org/2000/svg">
<path d="M4.66668 7.89121V2.33332C4.66668 1.04467 5.71134 0 7 0C8.28866 0 9.33332 1.04467 9.33332 2.33332V7.89119C10.0494 8.53207 10.5 9.46343 10.5 10.5C10.5 12.433 8.93298 14 7 14C5.06702 14 3.5 12.433 3.5 10.5C3.5 9.46343 3.95062 8.53207 4.66668 7.89121ZM7 12.8333C8.28866 12.8333 9.33332 11.7887 9.33332 10.5C9.33332 9.82633 9.04783 9.20139 8.55526 8.76053L8.16665 8.41271V2.33332C8.16665 1.689 7.6443 1.16665 6.99997 1.16665C6.35564 1.16665 5.8333 1.68897 5.8333 2.33332V8.41271L5.44469 8.76053C4.95212 9.20139 4.66662 9.8263 4.66662 10.5C4.66668 11.7887 5.71134 12.8333 7 12.8333Z" fill="#233138"/>
<path d="M6.41535 4.6665H7.58203V11.6665H6.41535V4.6665Z" fill="#233138"/>
<path d="M7 12.25C6.0335 12.25 5.25 11.4665 5.25 10.5C5.25 9.5335 6.0335 8.75 7 8.75C7.9665 8.75 8.75 9.5335 8.75 10.5C8.75 11.4665 7.9665 12.25 7 12.25Z" fill="#233138"/>
</svg>
