<svg width="39" height="13" viewBox="0 0 39 13" fill="none" xmlns="http://www.w3.org/2000/svg">
<path d="M15.6149 0.199707L13.6328 11.8311H16.8028L18.7865 0.199707H15.6149Z" fill="#929292"/>
<path d="M10.9755 0.212895L7.87079 8.14517L7.53976 6.94746C6.92746 5.50434 5.18919 3.43179 3.14844 2.12564L5.98739 11.8255L9.34163 11.8198L14.3338 0.210449L10.9755 0.212895Z" fill="#929292"/>
<path d="M6.33669 1.04603C6.15242 0.337518 5.61839 0.126349 4.95553 0.101074H0.0407661L0 0.332626C3.82468 1.26046 6.35544 3.49608 7.40557 6.1842L6.33669 1.04603Z" fill="#929292"/>
<path d="M25.2119 2.42966C26.2489 2.41335 27.0007 2.64001 27.5844 2.87483L27.8706 3.00936L28.2995 0.488377C27.6717 0.252749 26.6876 0 25.4597 0C22.3272 0 20.1193 1.57765 20.1022 3.83854C20.0818 5.50913 21.675 6.44186 22.8784 6.99873C24.1136 7.56946 24.5278 7.93227 24.5221 8.44185C24.5123 9.22048 23.5372 9.57759 22.6265 9.57759C21.357 9.57759 20.6827 9.4023 19.6416 8.96855L19.2331 8.78265L18.7871 11.386C19.5291 11.7113 20.898 11.9909 22.3191 12.0056C25.6513 12.0056 27.8168 10.4467 27.8396 8.03093C27.8535 6.70929 27.008 5.70074 25.176 4.87318C24.0671 4.33344 23.3888 3.9747 23.3953 3.43006C23.3953 2.94658 23.9709 2.42966 25.2119 2.42966Z" fill="#929292"/>
<path d="M36.436 0.212891H33.9868C33.2261 0.212891 32.6603 0.419983 32.326 1.17823L27.6191 11.8378H30.9481C30.9481 11.8378 31.4911 10.4044 31.6142 10.0905C31.9787 10.0905 35.2131 10.0954 35.6737 10.0954C35.7683 10.5014 36.0602 11.8378 36.0602 11.8378H39.001L36.436 0.212891ZM32.5266 7.70978C32.7875 7.04203 33.7895 4.45909 33.7895 4.45909C33.7724 4.49089 34.048 3.78645 34.2118 3.34862L34.4255 4.35147C34.4255 4.35147 35.0329 7.12846 35.1601 7.70978H32.5266Z" fill="#929292"/>
</svg>
