<svg width="14" height="15" viewBox="0 0 14 15" fill="none" xmlns="http://www.w3.org/2000/svg">
<path d="M6.86985 2.29323C6.84377 2.25016 6.81354 2.20958 6.78414 2.17024C6.686 2.04146 6.56922 1.93463 6.43796 1.84808C6.21559 1.70232 5.94809 1.61743 5.67686 1.61743C5.45201 1.61743 5.33647 1.64476 5.17498 1.71019C5.00934 1.77603 4.83253 1.86671 4.6731 2.03525C4.51492 2.20171 4.4205 2.37232 4.35425 2.54914C4.22091 2.90525 4.23665 3.37276 4.46978 3.7471C4.95675 4.53387 5.24455 5.42583 5.35014 6.34428C5.37871 6.58901 5.39652 6.83498 5.39652 7.08343C5.39652 8.26566 5.07394 9.42181 4.4644 10.426C4.44287 10.4616 4.42382 10.4972 4.40601 10.5336C4.28717 10.773 4.2441 11.0318 4.26812 11.284C4.3087 11.7109 4.54101 12.1146 4.93481 12.354C5.03667 12.4144 5.14392 12.4608 5.25573 12.4956C5.38782 12.5362 5.52406 12.5577 5.66236 12.5577C6.15679 12.5577 6.60649 12.3055 6.86323 11.8832C7.63509 10.6111 8.08645 9.17128 8.18294 7.68676C8.19619 7.48634 8.2024 7.2851 8.2024 7.08302C8.2024 5.39104 7.74193 3.73468 6.86985 2.29323Z" fill="#929292"/>
<path d="M5.15103 6.27731C4.34811 5.16962 3.22882 4.19941 1.96253 3.52112C1.76915 3.41802 1.55258 3.36377 1.33477 3.36377C0.840757 3.36377 0.39064 3.63293 0.157921 4.06731C-0.189502 4.7166 0.0556404 5.52491 0.703693 5.87233C2.65779 6.9175 3.91828 8.91176 4.06777 11.2162V11.2145C4.04541 10.9574 4.08723 10.7056 4.20566 10.4671C4.22181 10.4331 4.24127 10.3975 4.26405 10.3594C4.87442 9.35525 5.19617 8.19911 5.19617 7.01605C5.19617 6.76801 5.17877 6.52204 5.15103 6.27731Z" fill="#929292"/>
<path d="M13.5833 3.8349C13.3481 2.8034 12.9982 1.79633 12.5435 0.840605C12.2996 0.330031 11.7775 0 11.2114 0C10.9936 0 10.7791 0.0480346 10.5803 0.142861C9.84697 0.49194 9.53475 1.3752 9.88217 2.10648C10.6313 3.68458 10.9998 5.35171 10.9998 7.08344C10.9998 8.81476 10.6288 10.4802 9.89418 12.0322C9.88341 12.0558 9.75504 12.3308 9.75504 12.6476C9.75422 12.7366 9.76374 12.87 9.79231 12.9888C9.88755 13.4062 10.1604 13.7847 10.5961 13.9934C10.7961 14.0882 11.0064 14.135 11.2259 14.135C11.7634 14.135 12.2611 13.8381 12.5179 13.3706C12.8114 12.819 13.1088 12.0944 13.3672 11.1618C13.4487 10.8802 13.5175 10.6169 13.5825 10.3312C13.8227 9.27812 13.9481 8.19196 13.9481 7.08261C13.9469 5.98693 13.8227 4.88586 13.5833 3.8349Z" fill="#929292"/>
<path d="M10.7015 5.77948C9.74079 4.24279 8.3482 2.86883 6.71875 1.86011C6.72827 1.86632 6.7378 1.87253 6.73904 1.87377C6.85209 1.95535 6.94733 2.04065 7.04712 2.17026C7.07156 2.20173 7.10551 2.24687 7.13367 2.29325C8.00575 3.7347 8.46704 5.39106 8.46704 7.08304C8.46704 7.28429 8.46 7.48636 8.44758 7.68678C9.14657 9.0185 9.52836 10.532 9.52836 12.1196C9.52836 12.2459 9.53001 12.4488 9.52753 12.5967C9.53498 12.431 9.57598 12.2563 9.63602 12.1026C9.64513 12.0782 9.65507 12.055 9.66584 12.0323C10.3996 10.4802 10.7715 8.81477 10.7715 7.08345C10.7719 6.48799 10.7317 6.05402 10.7015 5.77948Z" fill="#929292"/>
</svg>
